<mxfile host="app.diagrams.net" modified="2023-10-19T03:26:14.534Z" agent="Mozilla/5.0 (Windows NT 10.0; Win64; x64) AppleWebKit/537.36 (KHTML, like Gecko) Chrome/118.0.0.0 Safari/537.36" etag="dYZKhjm1pn8o0zi8-HId" version="22.0.4" type="device" pages="3">
  <diagram name="Seite-1" id="NsOLfzzTCdJAbh5jPupg">
    <mxGraphModel dx="2074" dy="1120" grid="1" gridSize="10" guides="1" tooltips="1" connect="1" arrows="1" fold="1" page="1" pageScale="1" pageWidth="827" pageHeight="1169" math="0" shadow="0">
      <root>
        <mxCell id="0" />
        <mxCell id="1" parent="0" />
        <mxCell id="VZ7T0jRYkGRrnS-efQU6-1" value="&amp;lt;Betrag eingeben&amp;gt;" style="rounded=1;whiteSpace=wrap;html=1;" vertex="1" parent="1">
          <mxGeometry x="169" y="130" width="311" height="60" as="geometry" />
        </mxCell>
        <mxCell id="VZ7T0jRYkGRrnS-efQU6-4" value="Bestätigen" style="rounded=1;whiteSpace=wrap;html=1;" vertex="1" parent="1">
          <mxGeometry x="170" y="210" width="310" height="60" as="geometry" />
        </mxCell>
        <mxCell id="VZ7T0jRYkGRrnS-efQU6-6" value="&amp;lt;alter Beitrag&amp;gt;" style="rounded=1;whiteSpace=wrap;html=1;" vertex="1" parent="1">
          <mxGeometry x="169" y="290" width="311" height="60" as="geometry" />
        </mxCell>
        <mxCell id="VZ7T0jRYkGRrnS-efQU6-37" value="Schein/Münze" style="swimlane;whiteSpace=wrap;html=1;" vertex="1" parent="1">
          <mxGeometry x="169" y="370" width="91" height="450" as="geometry" />
        </mxCell>
        <mxCell id="VZ7T0jRYkGRrnS-efQU6-38" value="200,00" style="text;html=1;align=center;verticalAlign=middle;resizable=0;points=[];autosize=1;strokeColor=none;fillColor=none;" vertex="1" parent="VZ7T0jRYkGRrnS-efQU6-37">
          <mxGeometry x="31" y="30" width="60" height="30" as="geometry" />
        </mxCell>
        <mxCell id="VZ7T0jRYkGRrnS-efQU6-39" value="100,00" style="text;html=1;align=center;verticalAlign=middle;resizable=0;points=[];autosize=1;strokeColor=none;fillColor=none;" vertex="1" parent="VZ7T0jRYkGRrnS-efQU6-37">
          <mxGeometry x="31" y="60" width="60" height="30" as="geometry" />
        </mxCell>
        <mxCell id="VZ7T0jRYkGRrnS-efQU6-41" value="50,00" style="text;html=1;align=center;verticalAlign=middle;resizable=0;points=[];autosize=1;strokeColor=none;fillColor=none;" vertex="1" parent="VZ7T0jRYkGRrnS-efQU6-37">
          <mxGeometry x="41" y="90" width="50" height="30" as="geometry" />
        </mxCell>
        <mxCell id="VZ7T0jRYkGRrnS-efQU6-42" value="20,00" style="text;html=1;align=center;verticalAlign=middle;resizable=0;points=[];autosize=1;strokeColor=none;fillColor=none;" vertex="1" parent="VZ7T0jRYkGRrnS-efQU6-37">
          <mxGeometry x="41" y="120" width="50" height="30" as="geometry" />
        </mxCell>
        <mxCell id="VZ7T0jRYkGRrnS-efQU6-43" value="10,00" style="text;html=1;align=center;verticalAlign=middle;resizable=0;points=[];autosize=1;strokeColor=none;fillColor=none;" vertex="1" parent="VZ7T0jRYkGRrnS-efQU6-37">
          <mxGeometry x="41" y="150" width="50" height="30" as="geometry" />
        </mxCell>
        <mxCell id="VZ7T0jRYkGRrnS-efQU6-44" value="5,00" style="text;html=1;align=center;verticalAlign=middle;resizable=0;points=[];autosize=1;strokeColor=none;fillColor=none;" vertex="1" parent="VZ7T0jRYkGRrnS-efQU6-37">
          <mxGeometry x="41" y="180" width="50" height="30" as="geometry" />
        </mxCell>
        <mxCell id="VZ7T0jRYkGRrnS-efQU6-45" value="2,00" style="text;html=1;align=center;verticalAlign=middle;resizable=0;points=[];autosize=1;strokeColor=none;fillColor=none;" vertex="1" parent="1">
          <mxGeometry x="210" y="580" width="50" height="30" as="geometry" />
        </mxCell>
        <mxCell id="VZ7T0jRYkGRrnS-efQU6-46" value="1,00" style="text;html=1;align=center;verticalAlign=middle;resizable=0;points=[];autosize=1;strokeColor=none;fillColor=none;" vertex="1" parent="1">
          <mxGeometry x="210" y="610" width="50" height="30" as="geometry" />
        </mxCell>
        <mxCell id="VZ7T0jRYkGRrnS-efQU6-47" value="0,50" style="text;html=1;align=center;verticalAlign=middle;resizable=0;points=[];autosize=1;strokeColor=none;fillColor=none;" vertex="1" parent="1">
          <mxGeometry x="210" y="640" width="50" height="30" as="geometry" />
        </mxCell>
        <mxCell id="VZ7T0jRYkGRrnS-efQU6-48" value="0,20" style="text;html=1;align=center;verticalAlign=middle;resizable=0;points=[];autosize=1;strokeColor=none;fillColor=none;" vertex="1" parent="1">
          <mxGeometry x="210" y="670" width="50" height="30" as="geometry" />
        </mxCell>
        <mxCell id="VZ7T0jRYkGRrnS-efQU6-49" value="0,10" style="text;html=1;align=center;verticalAlign=middle;resizable=0;points=[];autosize=1;strokeColor=none;fillColor=none;" vertex="1" parent="1">
          <mxGeometry x="210" y="700" width="50" height="30" as="geometry" />
        </mxCell>
        <mxCell id="VZ7T0jRYkGRrnS-efQU6-50" value="0,05" style="text;html=1;align=center;verticalAlign=middle;resizable=0;points=[];autosize=1;strokeColor=none;fillColor=none;" vertex="1" parent="1">
          <mxGeometry x="210" y="730" width="50" height="30" as="geometry" />
        </mxCell>
        <mxCell id="VZ7T0jRYkGRrnS-efQU6-51" value="0,02" style="text;html=1;align=center;verticalAlign=middle;resizable=0;points=[];autosize=1;strokeColor=none;fillColor=none;" vertex="1" parent="1">
          <mxGeometry x="210" y="760" width="50" height="30" as="geometry" />
        </mxCell>
        <mxCell id="VZ7T0jRYkGRrnS-efQU6-52" value="0,01" style="text;html=1;align=center;verticalAlign=middle;resizable=0;points=[];autosize=1;strokeColor=none;fillColor=none;" vertex="1" parent="1">
          <mxGeometry x="210" y="790" width="50" height="30" as="geometry" />
        </mxCell>
        <mxCell id="VZ7T0jRYkGRrnS-efQU6-53" value="Anzahl" style="swimlane;whiteSpace=wrap;html=1;" vertex="1" parent="1">
          <mxGeometry x="280" y="370" width="91" height="450" as="geometry" />
        </mxCell>
        <mxCell id="VZ7T0jRYkGRrnS-efQU6-54" value="0" style="text;html=1;align=center;verticalAlign=middle;resizable=0;points=[];autosize=1;strokeColor=none;fillColor=none;" vertex="1" parent="VZ7T0jRYkGRrnS-efQU6-53">
          <mxGeometry x="51" y="30" width="30" height="30" as="geometry" />
        </mxCell>
        <mxCell id="VZ7T0jRYkGRrnS-efQU6-55" value="0" style="text;html=1;align=center;verticalAlign=middle;resizable=0;points=[];autosize=1;strokeColor=none;fillColor=none;" vertex="1" parent="VZ7T0jRYkGRrnS-efQU6-53">
          <mxGeometry x="51" y="60" width="30" height="30" as="geometry" />
        </mxCell>
        <mxCell id="VZ7T0jRYkGRrnS-efQU6-56" value="0" style="text;html=1;align=center;verticalAlign=middle;resizable=0;points=[];autosize=1;strokeColor=none;fillColor=none;" vertex="1" parent="VZ7T0jRYkGRrnS-efQU6-53">
          <mxGeometry x="51" y="90" width="30" height="30" as="geometry" />
        </mxCell>
        <mxCell id="VZ7T0jRYkGRrnS-efQU6-57" value="0" style="text;html=1;align=center;verticalAlign=middle;resizable=0;points=[];autosize=1;strokeColor=none;fillColor=none;" vertex="1" parent="VZ7T0jRYkGRrnS-efQU6-53">
          <mxGeometry x="51" y="120" width="30" height="30" as="geometry" />
        </mxCell>
        <mxCell id="VZ7T0jRYkGRrnS-efQU6-58" value="0" style="text;html=1;align=center;verticalAlign=middle;resizable=0;points=[];autosize=1;strokeColor=none;fillColor=none;" vertex="1" parent="VZ7T0jRYkGRrnS-efQU6-53">
          <mxGeometry x="51" y="150" width="30" height="30" as="geometry" />
        </mxCell>
        <mxCell id="VZ7T0jRYkGRrnS-efQU6-59" value="0" style="text;html=1;align=center;verticalAlign=middle;resizable=0;points=[];autosize=1;strokeColor=none;fillColor=none;" vertex="1" parent="VZ7T0jRYkGRrnS-efQU6-53">
          <mxGeometry x="51" y="180" width="30" height="30" as="geometry" />
        </mxCell>
        <mxCell id="VZ7T0jRYkGRrnS-efQU6-60" value="0" style="text;html=1;align=center;verticalAlign=middle;resizable=0;points=[];autosize=1;strokeColor=none;fillColor=none;" vertex="1" parent="1">
          <mxGeometry x="331" y="580" width="30" height="30" as="geometry" />
        </mxCell>
        <mxCell id="VZ7T0jRYkGRrnS-efQU6-61" value="0" style="text;html=1;align=center;verticalAlign=middle;resizable=0;points=[];autosize=1;strokeColor=none;fillColor=none;" vertex="1" parent="1">
          <mxGeometry x="331" y="610" width="30" height="30" as="geometry" />
        </mxCell>
        <mxCell id="VZ7T0jRYkGRrnS-efQU6-62" value="0" style="text;html=1;align=center;verticalAlign=middle;resizable=0;points=[];autosize=1;strokeColor=none;fillColor=none;" vertex="1" parent="1">
          <mxGeometry x="331" y="640" width="30" height="30" as="geometry" />
        </mxCell>
        <mxCell id="VZ7T0jRYkGRrnS-efQU6-63" value="0" style="text;html=1;align=center;verticalAlign=middle;resizable=0;points=[];autosize=1;strokeColor=none;fillColor=none;" vertex="1" parent="1">
          <mxGeometry x="331" y="670" width="30" height="30" as="geometry" />
        </mxCell>
        <mxCell id="VZ7T0jRYkGRrnS-efQU6-64" value="0" style="text;html=1;align=center;verticalAlign=middle;resizable=0;points=[];autosize=1;strokeColor=none;fillColor=none;" vertex="1" parent="1">
          <mxGeometry x="331" y="700" width="30" height="30" as="geometry" />
        </mxCell>
        <mxCell id="VZ7T0jRYkGRrnS-efQU6-65" value="0" style="text;html=1;align=center;verticalAlign=middle;resizable=0;points=[];autosize=1;strokeColor=none;fillColor=none;" vertex="1" parent="1">
          <mxGeometry x="331" y="730" width="30" height="30" as="geometry" />
        </mxCell>
        <mxCell id="VZ7T0jRYkGRrnS-efQU6-66" value="0" style="text;html=1;align=center;verticalAlign=middle;resizable=0;points=[];autosize=1;strokeColor=none;fillColor=none;" vertex="1" parent="1">
          <mxGeometry x="331" y="760" width="30" height="30" as="geometry" />
        </mxCell>
        <mxCell id="VZ7T0jRYkGRrnS-efQU6-67" value="0" style="text;html=1;align=center;verticalAlign=middle;resizable=0;points=[];autosize=1;strokeColor=none;fillColor=none;" vertex="1" parent="1">
          <mxGeometry x="331" y="790" width="30" height="30" as="geometry" />
        </mxCell>
        <mxCell id="VZ7T0jRYkGRrnS-efQU6-105" value="Differenz" style="swimlane;whiteSpace=wrap;html=1;" vertex="1" parent="1">
          <mxGeometry x="390" y="370" width="91" height="450" as="geometry" />
        </mxCell>
        <mxCell id="VZ7T0jRYkGRrnS-efQU6-106" value="0" style="text;html=1;align=center;verticalAlign=middle;resizable=0;points=[];autosize=1;strokeColor=none;fillColor=none;" vertex="1" parent="VZ7T0jRYkGRrnS-efQU6-105">
          <mxGeometry x="51" y="30" width="30" height="30" as="geometry" />
        </mxCell>
        <mxCell id="VZ7T0jRYkGRrnS-efQU6-107" value="0" style="text;html=1;align=center;verticalAlign=middle;resizable=0;points=[];autosize=1;strokeColor=none;fillColor=none;" vertex="1" parent="VZ7T0jRYkGRrnS-efQU6-105">
          <mxGeometry x="51" y="60" width="30" height="30" as="geometry" />
        </mxCell>
        <mxCell id="VZ7T0jRYkGRrnS-efQU6-108" value="0" style="text;html=1;align=center;verticalAlign=middle;resizable=0;points=[];autosize=1;strokeColor=none;fillColor=none;" vertex="1" parent="VZ7T0jRYkGRrnS-efQU6-105">
          <mxGeometry x="51" y="90" width="30" height="30" as="geometry" />
        </mxCell>
        <mxCell id="VZ7T0jRYkGRrnS-efQU6-109" value="0" style="text;html=1;align=center;verticalAlign=middle;resizable=0;points=[];autosize=1;strokeColor=none;fillColor=none;" vertex="1" parent="VZ7T0jRYkGRrnS-efQU6-105">
          <mxGeometry x="51" y="120" width="30" height="30" as="geometry" />
        </mxCell>
        <mxCell id="VZ7T0jRYkGRrnS-efQU6-110" value="0" style="text;html=1;align=center;verticalAlign=middle;resizable=0;points=[];autosize=1;strokeColor=none;fillColor=none;" vertex="1" parent="VZ7T0jRYkGRrnS-efQU6-105">
          <mxGeometry x="51" y="150" width="30" height="30" as="geometry" />
        </mxCell>
        <mxCell id="VZ7T0jRYkGRrnS-efQU6-111" value="0" style="text;html=1;align=center;verticalAlign=middle;resizable=0;points=[];autosize=1;strokeColor=none;fillColor=none;" vertex="1" parent="VZ7T0jRYkGRrnS-efQU6-105">
          <mxGeometry x="51" y="180" width="30" height="30" as="geometry" />
        </mxCell>
        <mxCell id="VZ7T0jRYkGRrnS-efQU6-112" value="0" style="text;html=1;align=center;verticalAlign=middle;resizable=0;points=[];autosize=1;strokeColor=none;fillColor=none;" vertex="1" parent="1">
          <mxGeometry x="441" y="580" width="30" height="30" as="geometry" />
        </mxCell>
        <mxCell id="VZ7T0jRYkGRrnS-efQU6-113" value="0" style="text;html=1;align=center;verticalAlign=middle;resizable=0;points=[];autosize=1;strokeColor=none;fillColor=none;" vertex="1" parent="1">
          <mxGeometry x="441" y="610" width="30" height="30" as="geometry" />
        </mxCell>
        <mxCell id="VZ7T0jRYkGRrnS-efQU6-114" value="0" style="text;html=1;align=center;verticalAlign=middle;resizable=0;points=[];autosize=1;strokeColor=none;fillColor=none;" vertex="1" parent="1">
          <mxGeometry x="441" y="640" width="30" height="30" as="geometry" />
        </mxCell>
        <mxCell id="VZ7T0jRYkGRrnS-efQU6-115" value="0" style="text;html=1;align=center;verticalAlign=middle;resizable=0;points=[];autosize=1;strokeColor=none;fillColor=none;" vertex="1" parent="1">
          <mxGeometry x="441" y="670" width="30" height="30" as="geometry" />
        </mxCell>
        <mxCell id="VZ7T0jRYkGRrnS-efQU6-116" value="0" style="text;html=1;align=center;verticalAlign=middle;resizable=0;points=[];autosize=1;strokeColor=none;fillColor=none;" vertex="1" parent="1">
          <mxGeometry x="441" y="700" width="30" height="30" as="geometry" />
        </mxCell>
        <mxCell id="VZ7T0jRYkGRrnS-efQU6-117" value="0" style="text;html=1;align=center;verticalAlign=middle;resizable=0;points=[];autosize=1;strokeColor=none;fillColor=none;" vertex="1" parent="1">
          <mxGeometry x="441" y="730" width="30" height="30" as="geometry" />
        </mxCell>
        <mxCell id="VZ7T0jRYkGRrnS-efQU6-118" value="0" style="text;html=1;align=center;verticalAlign=middle;resizable=0;points=[];autosize=1;strokeColor=none;fillColor=none;" vertex="1" parent="1">
          <mxGeometry x="441" y="760" width="30" height="30" as="geometry" />
        </mxCell>
        <mxCell id="VZ7T0jRYkGRrnS-efQU6-119" value="0" style="text;html=1;align=center;verticalAlign=middle;resizable=0;points=[];autosize=1;strokeColor=none;fillColor=none;" vertex="1" parent="1">
          <mxGeometry x="441" y="790" width="30" height="30" as="geometry" />
        </mxCell>
      </root>
    </mxGraphModel>
  </diagram>
  <diagram name="First_Input" id="b_rhzLsoVQxHk2x5lA_q">
    <mxGraphModel dx="2074" dy="1120" grid="1" gridSize="10" guides="1" tooltips="1" connect="1" arrows="1" fold="1" page="1" pageScale="1" pageWidth="827" pageHeight="1169" math="0" shadow="0">
      <root>
        <mxCell id="ftZb3P9qW-NndRsq5IkX-0" />
        <mxCell id="ftZb3P9qW-NndRsq5IkX-1" parent="ftZb3P9qW-NndRsq5IkX-0" />
        <mxCell id="ftZb3P9qW-NndRsq5IkX-2" value="251,05€" style="rounded=1;whiteSpace=wrap;html=1;" vertex="1" parent="ftZb3P9qW-NndRsq5IkX-1">
          <mxGeometry x="169" y="130" width="311" height="60" as="geometry" />
        </mxCell>
        <mxCell id="ftZb3P9qW-NndRsq5IkX-3" value="Bestätigen" style="rounded=1;whiteSpace=wrap;html=1;" vertex="1" parent="ftZb3P9qW-NndRsq5IkX-1">
          <mxGeometry x="170" y="210" width="310" height="60" as="geometry" />
        </mxCell>
        <mxCell id="ftZb3P9qW-NndRsq5IkX-4" value="0,00€" style="rounded=1;whiteSpace=wrap;html=1;" vertex="1" parent="ftZb3P9qW-NndRsq5IkX-1">
          <mxGeometry x="169" y="290" width="311" height="60" as="geometry" />
        </mxCell>
        <mxCell id="ftZb3P9qW-NndRsq5IkX-5" value="Schein/Münze" style="swimlane;whiteSpace=wrap;html=1;" vertex="1" parent="ftZb3P9qW-NndRsq5IkX-1">
          <mxGeometry x="169" y="370" width="91" height="450" as="geometry" />
        </mxCell>
        <mxCell id="ftZb3P9qW-NndRsq5IkX-6" value="200,00" style="text;html=1;align=center;verticalAlign=middle;resizable=0;points=[];autosize=1;strokeColor=none;fillColor=none;" vertex="1" parent="ftZb3P9qW-NndRsq5IkX-5">
          <mxGeometry x="31" y="30" width="60" height="30" as="geometry" />
        </mxCell>
        <mxCell id="ftZb3P9qW-NndRsq5IkX-7" value="100,00" style="text;html=1;align=center;verticalAlign=middle;resizable=0;points=[];autosize=1;strokeColor=none;fillColor=none;" vertex="1" parent="ftZb3P9qW-NndRsq5IkX-5">
          <mxGeometry x="31" y="60" width="60" height="30" as="geometry" />
        </mxCell>
        <mxCell id="ftZb3P9qW-NndRsq5IkX-8" value="50,00" style="text;html=1;align=center;verticalAlign=middle;resizable=0;points=[];autosize=1;strokeColor=none;fillColor=none;" vertex="1" parent="ftZb3P9qW-NndRsq5IkX-5">
          <mxGeometry x="41" y="90" width="50" height="30" as="geometry" />
        </mxCell>
        <mxCell id="ftZb3P9qW-NndRsq5IkX-9" value="20,00" style="text;html=1;align=center;verticalAlign=middle;resizable=0;points=[];autosize=1;strokeColor=none;fillColor=none;" vertex="1" parent="ftZb3P9qW-NndRsq5IkX-5">
          <mxGeometry x="41" y="120" width="50" height="30" as="geometry" />
        </mxCell>
        <mxCell id="ftZb3P9qW-NndRsq5IkX-10" value="10,00" style="text;html=1;align=center;verticalAlign=middle;resizable=0;points=[];autosize=1;strokeColor=none;fillColor=none;" vertex="1" parent="ftZb3P9qW-NndRsq5IkX-5">
          <mxGeometry x="41" y="150" width="50" height="30" as="geometry" />
        </mxCell>
        <mxCell id="ftZb3P9qW-NndRsq5IkX-11" value="5,00" style="text;html=1;align=center;verticalAlign=middle;resizable=0;points=[];autosize=1;strokeColor=none;fillColor=none;" vertex="1" parent="ftZb3P9qW-NndRsq5IkX-5">
          <mxGeometry x="41" y="180" width="50" height="30" as="geometry" />
        </mxCell>
        <mxCell id="ftZb3P9qW-NndRsq5IkX-12" value="2,00" style="text;html=1;align=center;verticalAlign=middle;resizable=0;points=[];autosize=1;strokeColor=none;fillColor=none;" vertex="1" parent="ftZb3P9qW-NndRsq5IkX-1">
          <mxGeometry x="210" y="580" width="50" height="30" as="geometry" />
        </mxCell>
        <mxCell id="ftZb3P9qW-NndRsq5IkX-13" value="1,00" style="text;html=1;align=center;verticalAlign=middle;resizable=0;points=[];autosize=1;strokeColor=none;fillColor=none;" vertex="1" parent="ftZb3P9qW-NndRsq5IkX-1">
          <mxGeometry x="210" y="610" width="50" height="30" as="geometry" />
        </mxCell>
        <mxCell id="ftZb3P9qW-NndRsq5IkX-14" value="0,50" style="text;html=1;align=center;verticalAlign=middle;resizable=0;points=[];autosize=1;strokeColor=none;fillColor=none;" vertex="1" parent="ftZb3P9qW-NndRsq5IkX-1">
          <mxGeometry x="210" y="640" width="50" height="30" as="geometry" />
        </mxCell>
        <mxCell id="ftZb3P9qW-NndRsq5IkX-15" value="0,20" style="text;html=1;align=center;verticalAlign=middle;resizable=0;points=[];autosize=1;strokeColor=none;fillColor=none;" vertex="1" parent="ftZb3P9qW-NndRsq5IkX-1">
          <mxGeometry x="210" y="670" width="50" height="30" as="geometry" />
        </mxCell>
        <mxCell id="ftZb3P9qW-NndRsq5IkX-16" value="0,10" style="text;html=1;align=center;verticalAlign=middle;resizable=0;points=[];autosize=1;strokeColor=none;fillColor=none;" vertex="1" parent="ftZb3P9qW-NndRsq5IkX-1">
          <mxGeometry x="210" y="700" width="50" height="30" as="geometry" />
        </mxCell>
        <mxCell id="ftZb3P9qW-NndRsq5IkX-17" value="0,05" style="text;html=1;align=center;verticalAlign=middle;resizable=0;points=[];autosize=1;strokeColor=none;fillColor=none;" vertex="1" parent="ftZb3P9qW-NndRsq5IkX-1">
          <mxGeometry x="210" y="730" width="50" height="30" as="geometry" />
        </mxCell>
        <mxCell id="ftZb3P9qW-NndRsq5IkX-18" value="0,02" style="text;html=1;align=center;verticalAlign=middle;resizable=0;points=[];autosize=1;strokeColor=none;fillColor=none;" vertex="1" parent="ftZb3P9qW-NndRsq5IkX-1">
          <mxGeometry x="210" y="760" width="50" height="30" as="geometry" />
        </mxCell>
        <mxCell id="ftZb3P9qW-NndRsq5IkX-19" value="0,01" style="text;html=1;align=center;verticalAlign=middle;resizable=0;points=[];autosize=1;strokeColor=none;fillColor=none;" vertex="1" parent="ftZb3P9qW-NndRsq5IkX-1">
          <mxGeometry x="210" y="790" width="50" height="30" as="geometry" />
        </mxCell>
        <mxCell id="ftZb3P9qW-NndRsq5IkX-20" value="Anzahl" style="swimlane;whiteSpace=wrap;html=1;" vertex="1" parent="ftZb3P9qW-NndRsq5IkX-1">
          <mxGeometry x="280" y="370" width="91" height="450" as="geometry" />
        </mxCell>
        <mxCell id="ftZb3P9qW-NndRsq5IkX-21" value="1" style="text;html=1;align=center;verticalAlign=middle;resizable=0;points=[];autosize=1;strokeColor=none;fillColor=none;" vertex="1" parent="ftZb3P9qW-NndRsq5IkX-20">
          <mxGeometry x="51" y="30" width="30" height="30" as="geometry" />
        </mxCell>
        <mxCell id="ftZb3P9qW-NndRsq5IkX-22" value="0" style="text;html=1;align=center;verticalAlign=middle;resizable=0;points=[];autosize=1;strokeColor=none;fillColor=none;" vertex="1" parent="ftZb3P9qW-NndRsq5IkX-20">
          <mxGeometry x="51" y="60" width="30" height="30" as="geometry" />
        </mxCell>
        <mxCell id="ftZb3P9qW-NndRsq5IkX-23" value="1" style="text;html=1;align=center;verticalAlign=middle;resizable=0;points=[];autosize=1;strokeColor=none;fillColor=none;" vertex="1" parent="ftZb3P9qW-NndRsq5IkX-20">
          <mxGeometry x="51" y="90" width="30" height="30" as="geometry" />
        </mxCell>
        <mxCell id="ftZb3P9qW-NndRsq5IkX-24" value="0" style="text;html=1;align=center;verticalAlign=middle;resizable=0;points=[];autosize=1;strokeColor=none;fillColor=none;" vertex="1" parent="ftZb3P9qW-NndRsq5IkX-20">
          <mxGeometry x="51" y="120" width="30" height="30" as="geometry" />
        </mxCell>
        <mxCell id="ftZb3P9qW-NndRsq5IkX-25" value="0" style="text;html=1;align=center;verticalAlign=middle;resizable=0;points=[];autosize=1;strokeColor=none;fillColor=none;" vertex="1" parent="ftZb3P9qW-NndRsq5IkX-20">
          <mxGeometry x="51" y="150" width="30" height="30" as="geometry" />
        </mxCell>
        <mxCell id="ftZb3P9qW-NndRsq5IkX-26" value="0" style="text;html=1;align=center;verticalAlign=middle;resizable=0;points=[];autosize=1;strokeColor=none;fillColor=none;" vertex="1" parent="ftZb3P9qW-NndRsq5IkX-20">
          <mxGeometry x="51" y="180" width="30" height="30" as="geometry" />
        </mxCell>
        <mxCell id="ftZb3P9qW-NndRsq5IkX-27" value="0" style="text;html=1;align=center;verticalAlign=middle;resizable=0;points=[];autosize=1;strokeColor=none;fillColor=none;" vertex="1" parent="ftZb3P9qW-NndRsq5IkX-1">
          <mxGeometry x="331" y="580" width="30" height="30" as="geometry" />
        </mxCell>
        <mxCell id="ftZb3P9qW-NndRsq5IkX-28" value="0" style="text;html=1;align=center;verticalAlign=middle;resizable=0;points=[];autosize=1;strokeColor=none;fillColor=none;" vertex="1" parent="ftZb3P9qW-NndRsq5IkX-1">
          <mxGeometry x="331" y="610" width="30" height="30" as="geometry" />
        </mxCell>
        <mxCell id="ftZb3P9qW-NndRsq5IkX-29" value="1" style="text;html=1;align=center;verticalAlign=middle;resizable=0;points=[];autosize=1;strokeColor=none;fillColor=none;" vertex="1" parent="ftZb3P9qW-NndRsq5IkX-1">
          <mxGeometry x="331" y="640" width="30" height="30" as="geometry" />
        </mxCell>
        <mxCell id="ftZb3P9qW-NndRsq5IkX-30" value="0" style="text;html=1;align=center;verticalAlign=middle;resizable=0;points=[];autosize=1;strokeColor=none;fillColor=none;" vertex="1" parent="ftZb3P9qW-NndRsq5IkX-1">
          <mxGeometry x="331" y="670" width="30" height="30" as="geometry" />
        </mxCell>
        <mxCell id="ftZb3P9qW-NndRsq5IkX-31" value="0" style="text;html=1;align=center;verticalAlign=middle;resizable=0;points=[];autosize=1;strokeColor=none;fillColor=none;" vertex="1" parent="ftZb3P9qW-NndRsq5IkX-1">
          <mxGeometry x="331" y="700" width="30" height="30" as="geometry" />
        </mxCell>
        <mxCell id="ftZb3P9qW-NndRsq5IkX-32" value="1" style="text;html=1;align=center;verticalAlign=middle;resizable=0;points=[];autosize=1;strokeColor=none;fillColor=none;" vertex="1" parent="ftZb3P9qW-NndRsq5IkX-1">
          <mxGeometry x="331" y="730" width="30" height="30" as="geometry" />
        </mxCell>
        <mxCell id="ftZb3P9qW-NndRsq5IkX-33" value="0" style="text;html=1;align=center;verticalAlign=middle;resizable=0;points=[];autosize=1;strokeColor=none;fillColor=none;" vertex="1" parent="ftZb3P9qW-NndRsq5IkX-1">
          <mxGeometry x="331" y="760" width="30" height="30" as="geometry" />
        </mxCell>
        <mxCell id="ftZb3P9qW-NndRsq5IkX-34" value="0" style="text;html=1;align=center;verticalAlign=middle;resizable=0;points=[];autosize=1;strokeColor=none;fillColor=none;" vertex="1" parent="ftZb3P9qW-NndRsq5IkX-1">
          <mxGeometry x="331" y="790" width="30" height="30" as="geometry" />
        </mxCell>
        <mxCell id="ftZb3P9qW-NndRsq5IkX-35" value="Differenz" style="swimlane;whiteSpace=wrap;html=1;" vertex="1" parent="ftZb3P9qW-NndRsq5IkX-1">
          <mxGeometry x="390" y="370" width="91" height="450" as="geometry" />
        </mxCell>
        <mxCell id="ftZb3P9qW-NndRsq5IkX-36" value="0" style="text;html=1;align=center;verticalAlign=middle;resizable=0;points=[];autosize=1;strokeColor=none;fillColor=none;" vertex="1" parent="ftZb3P9qW-NndRsq5IkX-35">
          <mxGeometry x="51" y="30" width="30" height="30" as="geometry" />
        </mxCell>
        <mxCell id="ftZb3P9qW-NndRsq5IkX-37" value="0" style="text;html=1;align=center;verticalAlign=middle;resizable=0;points=[];autosize=1;strokeColor=none;fillColor=none;" vertex="1" parent="ftZb3P9qW-NndRsq5IkX-35">
          <mxGeometry x="51" y="60" width="30" height="30" as="geometry" />
        </mxCell>
        <mxCell id="ftZb3P9qW-NndRsq5IkX-38" value="0" style="text;html=1;align=center;verticalAlign=middle;resizable=0;points=[];autosize=1;strokeColor=none;fillColor=none;" vertex="1" parent="ftZb3P9qW-NndRsq5IkX-35">
          <mxGeometry x="51" y="90" width="30" height="30" as="geometry" />
        </mxCell>
        <mxCell id="ftZb3P9qW-NndRsq5IkX-39" value="0" style="text;html=1;align=center;verticalAlign=middle;resizable=0;points=[];autosize=1;strokeColor=none;fillColor=none;" vertex="1" parent="ftZb3P9qW-NndRsq5IkX-35">
          <mxGeometry x="51" y="120" width="30" height="30" as="geometry" />
        </mxCell>
        <mxCell id="ftZb3P9qW-NndRsq5IkX-40" value="0" style="text;html=1;align=center;verticalAlign=middle;resizable=0;points=[];autosize=1;strokeColor=none;fillColor=none;" vertex="1" parent="ftZb3P9qW-NndRsq5IkX-35">
          <mxGeometry x="51" y="150" width="30" height="30" as="geometry" />
        </mxCell>
        <mxCell id="ftZb3P9qW-NndRsq5IkX-41" value="0" style="text;html=1;align=center;verticalAlign=middle;resizable=0;points=[];autosize=1;strokeColor=none;fillColor=none;" vertex="1" parent="ftZb3P9qW-NndRsq5IkX-35">
          <mxGeometry x="51" y="180" width="30" height="30" as="geometry" />
        </mxCell>
        <mxCell id="ftZb3P9qW-NndRsq5IkX-42" value="0" style="text;html=1;align=center;verticalAlign=middle;resizable=0;points=[];autosize=1;strokeColor=none;fillColor=none;" vertex="1" parent="ftZb3P9qW-NndRsq5IkX-1">
          <mxGeometry x="441" y="580" width="30" height="30" as="geometry" />
        </mxCell>
        <mxCell id="ftZb3P9qW-NndRsq5IkX-43" value="0" style="text;html=1;align=center;verticalAlign=middle;resizable=0;points=[];autosize=1;strokeColor=none;fillColor=none;" vertex="1" parent="ftZb3P9qW-NndRsq5IkX-1">
          <mxGeometry x="441" y="610" width="30" height="30" as="geometry" />
        </mxCell>
        <mxCell id="ftZb3P9qW-NndRsq5IkX-44" value="0" style="text;html=1;align=center;verticalAlign=middle;resizable=0;points=[];autosize=1;strokeColor=none;fillColor=none;" vertex="1" parent="ftZb3P9qW-NndRsq5IkX-1">
          <mxGeometry x="441" y="640" width="30" height="30" as="geometry" />
        </mxCell>
        <mxCell id="ftZb3P9qW-NndRsq5IkX-45" value="0" style="text;html=1;align=center;verticalAlign=middle;resizable=0;points=[];autosize=1;strokeColor=none;fillColor=none;" vertex="1" parent="ftZb3P9qW-NndRsq5IkX-1">
          <mxGeometry x="441" y="670" width="30" height="30" as="geometry" />
        </mxCell>
        <mxCell id="ftZb3P9qW-NndRsq5IkX-46" value="0" style="text;html=1;align=center;verticalAlign=middle;resizable=0;points=[];autosize=1;strokeColor=none;fillColor=none;" vertex="1" parent="ftZb3P9qW-NndRsq5IkX-1">
          <mxGeometry x="441" y="700" width="30" height="30" as="geometry" />
        </mxCell>
        <mxCell id="ftZb3P9qW-NndRsq5IkX-47" value="0" style="text;html=1;align=center;verticalAlign=middle;resizable=0;points=[];autosize=1;strokeColor=none;fillColor=none;" vertex="1" parent="ftZb3P9qW-NndRsq5IkX-1">
          <mxGeometry x="441" y="730" width="30" height="30" as="geometry" />
        </mxCell>
        <mxCell id="ftZb3P9qW-NndRsq5IkX-48" value="0" style="text;html=1;align=center;verticalAlign=middle;resizable=0;points=[];autosize=1;strokeColor=none;fillColor=none;" vertex="1" parent="ftZb3P9qW-NndRsq5IkX-1">
          <mxGeometry x="441" y="760" width="30" height="30" as="geometry" />
        </mxCell>
        <mxCell id="ftZb3P9qW-NndRsq5IkX-49" value="0" style="text;html=1;align=center;verticalAlign=middle;resizable=0;points=[];autosize=1;strokeColor=none;fillColor=none;" vertex="1" parent="ftZb3P9qW-NndRsq5IkX-1">
          <mxGeometry x="441" y="790" width="30" height="30" as="geometry" />
        </mxCell>
      </root>
    </mxGraphModel>
  </diagram>
  <diagram name="Second_Input" id="167eKJK2a8UgfNtY3zTg">
    <mxGraphModel dx="2074" dy="1120" grid="1" gridSize="10" guides="1" tooltips="1" connect="1" arrows="1" fold="1" page="1" pageScale="1" pageWidth="827" pageHeight="1169" math="0" shadow="0">
      <root>
        <mxCell id="sUT4LYcIheUjuHybO1A9-0" />
        <mxCell id="sUT4LYcIheUjuHybO1A9-1" parent="sUT4LYcIheUjuHybO1A9-0" />
        <mxCell id="sUT4LYcIheUjuHybO1A9-2" value="56,66€" style="rounded=1;whiteSpace=wrap;html=1;" vertex="1" parent="sUT4LYcIheUjuHybO1A9-1">
          <mxGeometry x="169" y="130" width="311" height="60" as="geometry" />
        </mxCell>
        <mxCell id="sUT4LYcIheUjuHybO1A9-3" value="Bestätigen" style="rounded=1;whiteSpace=wrap;html=1;" vertex="1" parent="sUT4LYcIheUjuHybO1A9-1">
          <mxGeometry x="170" y="210" width="310" height="60" as="geometry" />
        </mxCell>
        <mxCell id="sUT4LYcIheUjuHybO1A9-4" value="251,05€" style="rounded=1;whiteSpace=wrap;html=1;" vertex="1" parent="sUT4LYcIheUjuHybO1A9-1">
          <mxGeometry x="169" y="290" width="311" height="60" as="geometry" />
        </mxCell>
        <mxCell id="sUT4LYcIheUjuHybO1A9-5" value="Schein/Münze" style="swimlane;whiteSpace=wrap;html=1;" vertex="1" parent="sUT4LYcIheUjuHybO1A9-1">
          <mxGeometry x="169" y="370" width="91" height="450" as="geometry" />
        </mxCell>
        <mxCell id="sUT4LYcIheUjuHybO1A9-6" value="200,00" style="text;html=1;align=center;verticalAlign=middle;resizable=0;points=[];autosize=1;strokeColor=none;fillColor=none;" vertex="1" parent="sUT4LYcIheUjuHybO1A9-5">
          <mxGeometry x="31" y="30" width="60" height="30" as="geometry" />
        </mxCell>
        <mxCell id="sUT4LYcIheUjuHybO1A9-7" value="100,00" style="text;html=1;align=center;verticalAlign=middle;resizable=0;points=[];autosize=1;strokeColor=none;fillColor=none;" vertex="1" parent="sUT4LYcIheUjuHybO1A9-5">
          <mxGeometry x="31" y="60" width="60" height="30" as="geometry" />
        </mxCell>
        <mxCell id="sUT4LYcIheUjuHybO1A9-8" value="50,00" style="text;html=1;align=center;verticalAlign=middle;resizable=0;points=[];autosize=1;strokeColor=none;fillColor=none;" vertex="1" parent="sUT4LYcIheUjuHybO1A9-5">
          <mxGeometry x="41" y="90" width="50" height="30" as="geometry" />
        </mxCell>
        <mxCell id="sUT4LYcIheUjuHybO1A9-9" value="20,00" style="text;html=1;align=center;verticalAlign=middle;resizable=0;points=[];autosize=1;strokeColor=none;fillColor=none;" vertex="1" parent="sUT4LYcIheUjuHybO1A9-5">
          <mxGeometry x="41" y="120" width="50" height="30" as="geometry" />
        </mxCell>
        <mxCell id="sUT4LYcIheUjuHybO1A9-10" value="10,00" style="text;html=1;align=center;verticalAlign=middle;resizable=0;points=[];autosize=1;strokeColor=none;fillColor=none;" vertex="1" parent="sUT4LYcIheUjuHybO1A9-5">
          <mxGeometry x="41" y="150" width="50" height="30" as="geometry" />
        </mxCell>
        <mxCell id="sUT4LYcIheUjuHybO1A9-11" value="5,00" style="text;html=1;align=center;verticalAlign=middle;resizable=0;points=[];autosize=1;strokeColor=none;fillColor=none;" vertex="1" parent="sUT4LYcIheUjuHybO1A9-5">
          <mxGeometry x="41" y="180" width="50" height="30" as="geometry" />
        </mxCell>
        <mxCell id="sUT4LYcIheUjuHybO1A9-12" value="2,00" style="text;html=1;align=center;verticalAlign=middle;resizable=0;points=[];autosize=1;strokeColor=none;fillColor=none;" vertex="1" parent="sUT4LYcIheUjuHybO1A9-1">
          <mxGeometry x="210" y="580" width="50" height="30" as="geometry" />
        </mxCell>
        <mxCell id="sUT4LYcIheUjuHybO1A9-13" value="1,00" style="text;html=1;align=center;verticalAlign=middle;resizable=0;points=[];autosize=1;strokeColor=none;fillColor=none;" vertex="1" parent="sUT4LYcIheUjuHybO1A9-1">
          <mxGeometry x="210" y="610" width="50" height="30" as="geometry" />
        </mxCell>
        <mxCell id="sUT4LYcIheUjuHybO1A9-14" value="0,50" style="text;html=1;align=center;verticalAlign=middle;resizable=0;points=[];autosize=1;strokeColor=none;fillColor=none;" vertex="1" parent="sUT4LYcIheUjuHybO1A9-1">
          <mxGeometry x="210" y="640" width="50" height="30" as="geometry" />
        </mxCell>
        <mxCell id="sUT4LYcIheUjuHybO1A9-15" value="0,20" style="text;html=1;align=center;verticalAlign=middle;resizable=0;points=[];autosize=1;strokeColor=none;fillColor=none;" vertex="1" parent="sUT4LYcIheUjuHybO1A9-1">
          <mxGeometry x="210" y="670" width="50" height="30" as="geometry" />
        </mxCell>
        <mxCell id="sUT4LYcIheUjuHybO1A9-16" value="0,10" style="text;html=1;align=center;verticalAlign=middle;resizable=0;points=[];autosize=1;strokeColor=none;fillColor=none;" vertex="1" parent="sUT4LYcIheUjuHybO1A9-1">
          <mxGeometry x="210" y="700" width="50" height="30" as="geometry" />
        </mxCell>
        <mxCell id="sUT4LYcIheUjuHybO1A9-17" value="0,05" style="text;html=1;align=center;verticalAlign=middle;resizable=0;points=[];autosize=1;strokeColor=none;fillColor=none;" vertex="1" parent="sUT4LYcIheUjuHybO1A9-1">
          <mxGeometry x="210" y="730" width="50" height="30" as="geometry" />
        </mxCell>
        <mxCell id="sUT4LYcIheUjuHybO1A9-18" value="0,02" style="text;html=1;align=center;verticalAlign=middle;resizable=0;points=[];autosize=1;strokeColor=none;fillColor=none;" vertex="1" parent="sUT4LYcIheUjuHybO1A9-1">
          <mxGeometry x="210" y="760" width="50" height="30" as="geometry" />
        </mxCell>
        <mxCell id="sUT4LYcIheUjuHybO1A9-19" value="0,01" style="text;html=1;align=center;verticalAlign=middle;resizable=0;points=[];autosize=1;strokeColor=none;fillColor=none;" vertex="1" parent="sUT4LYcIheUjuHybO1A9-1">
          <mxGeometry x="210" y="790" width="50" height="30" as="geometry" />
        </mxCell>
        <mxCell id="sUT4LYcIheUjuHybO1A9-20" value="Anzahl" style="swimlane;whiteSpace=wrap;html=1;" vertex="1" parent="sUT4LYcIheUjuHybO1A9-1">
          <mxGeometry x="280" y="370" width="91" height="450" as="geometry" />
        </mxCell>
        <mxCell id="sUT4LYcIheUjuHybO1A9-21" value="0" style="text;html=1;align=center;verticalAlign=middle;resizable=0;points=[];autosize=1;strokeColor=none;fillColor=none;" vertex="1" parent="sUT4LYcIheUjuHybO1A9-20">
          <mxGeometry x="51" y="30" width="30" height="30" as="geometry" />
        </mxCell>
        <mxCell id="sUT4LYcIheUjuHybO1A9-22" value="0" style="text;html=1;align=center;verticalAlign=middle;resizable=0;points=[];autosize=1;strokeColor=none;fillColor=none;" vertex="1" parent="sUT4LYcIheUjuHybO1A9-20">
          <mxGeometry x="51" y="60" width="30" height="30" as="geometry" />
        </mxCell>
        <mxCell id="sUT4LYcIheUjuHybO1A9-23" value="1" style="text;html=1;align=center;verticalAlign=middle;resizable=0;points=[];autosize=1;strokeColor=none;fillColor=none;" vertex="1" parent="sUT4LYcIheUjuHybO1A9-20">
          <mxGeometry x="51" y="90" width="30" height="30" as="geometry" />
        </mxCell>
        <mxCell id="sUT4LYcIheUjuHybO1A9-24" value="0" style="text;html=1;align=center;verticalAlign=middle;resizable=0;points=[];autosize=1;strokeColor=none;fillColor=none;" vertex="1" parent="sUT4LYcIheUjuHybO1A9-20">
          <mxGeometry x="51" y="120" width="30" height="30" as="geometry" />
        </mxCell>
        <mxCell id="sUT4LYcIheUjuHybO1A9-25" value="0" style="text;html=1;align=center;verticalAlign=middle;resizable=0;points=[];autosize=1;strokeColor=none;fillColor=none;" vertex="1" parent="sUT4LYcIheUjuHybO1A9-20">
          <mxGeometry x="51" y="150" width="30" height="30" as="geometry" />
        </mxCell>
        <mxCell id="sUT4LYcIheUjuHybO1A9-26" value="1" style="text;html=1;align=center;verticalAlign=middle;resizable=0;points=[];autosize=1;strokeColor=none;fillColor=none;" vertex="1" parent="sUT4LYcIheUjuHybO1A9-20">
          <mxGeometry x="51" y="180" width="30" height="30" as="geometry" />
        </mxCell>
        <mxCell id="sUT4LYcIheUjuHybO1A9-27" value="0" style="text;html=1;align=center;verticalAlign=middle;resizable=0;points=[];autosize=1;strokeColor=none;fillColor=none;" vertex="1" parent="sUT4LYcIheUjuHybO1A9-1">
          <mxGeometry x="331" y="580" width="30" height="30" as="geometry" />
        </mxCell>
        <mxCell id="sUT4LYcIheUjuHybO1A9-28" value="1" style="text;html=1;align=center;verticalAlign=middle;resizable=0;points=[];autosize=1;strokeColor=none;fillColor=none;" vertex="1" parent="sUT4LYcIheUjuHybO1A9-1">
          <mxGeometry x="331" y="610" width="30" height="30" as="geometry" />
        </mxCell>
        <mxCell id="sUT4LYcIheUjuHybO1A9-29" value="1" style="text;html=1;align=center;verticalAlign=middle;resizable=0;points=[];autosize=1;strokeColor=none;fillColor=none;" vertex="1" parent="sUT4LYcIheUjuHybO1A9-1">
          <mxGeometry x="331" y="640" width="30" height="30" as="geometry" />
        </mxCell>
        <mxCell id="sUT4LYcIheUjuHybO1A9-30" value="0" style="text;html=1;align=center;verticalAlign=middle;resizable=0;points=[];autosize=1;strokeColor=none;fillColor=none;" vertex="1" parent="sUT4LYcIheUjuHybO1A9-1">
          <mxGeometry x="331" y="670" width="30" height="30" as="geometry" />
        </mxCell>
        <mxCell id="sUT4LYcIheUjuHybO1A9-31" value="1" style="text;html=1;align=center;verticalAlign=middle;resizable=0;points=[];autosize=1;strokeColor=none;fillColor=none;" vertex="1" parent="sUT4LYcIheUjuHybO1A9-1">
          <mxGeometry x="331" y="700" width="30" height="30" as="geometry" />
        </mxCell>
        <mxCell id="sUT4LYcIheUjuHybO1A9-32" value="1" style="text;html=1;align=center;verticalAlign=middle;resizable=0;points=[];autosize=1;strokeColor=none;fillColor=none;" vertex="1" parent="sUT4LYcIheUjuHybO1A9-1">
          <mxGeometry x="331" y="730" width="30" height="30" as="geometry" />
        </mxCell>
        <mxCell id="sUT4LYcIheUjuHybO1A9-33" value="0" style="text;html=1;align=center;verticalAlign=middle;resizable=0;points=[];autosize=1;strokeColor=none;fillColor=none;" vertex="1" parent="sUT4LYcIheUjuHybO1A9-1">
          <mxGeometry x="331" y="760" width="30" height="30" as="geometry" />
        </mxCell>
        <mxCell id="sUT4LYcIheUjuHybO1A9-34" value="1" style="text;html=1;align=center;verticalAlign=middle;resizable=0;points=[];autosize=1;strokeColor=none;fillColor=none;" vertex="1" parent="sUT4LYcIheUjuHybO1A9-1">
          <mxGeometry x="331" y="790" width="30" height="30" as="geometry" />
        </mxCell>
        <mxCell id="sUT4LYcIheUjuHybO1A9-35" value="Differenz" style="swimlane;whiteSpace=wrap;html=1;" vertex="1" parent="sUT4LYcIheUjuHybO1A9-1">
          <mxGeometry x="390" y="370" width="91" height="450" as="geometry" />
        </mxCell>
        <mxCell id="sUT4LYcIheUjuHybO1A9-36" value="-1" style="text;html=1;align=center;verticalAlign=middle;resizable=0;points=[];autosize=1;strokeColor=none;fillColor=none;" vertex="1" parent="sUT4LYcIheUjuHybO1A9-35">
          <mxGeometry x="51" y="30" width="30" height="30" as="geometry" />
        </mxCell>
        <mxCell id="sUT4LYcIheUjuHybO1A9-37" value="0" style="text;html=1;align=center;verticalAlign=middle;resizable=0;points=[];autosize=1;strokeColor=none;fillColor=none;" vertex="1" parent="sUT4LYcIheUjuHybO1A9-35">
          <mxGeometry x="51" y="60" width="30" height="30" as="geometry" />
        </mxCell>
        <mxCell id="sUT4LYcIheUjuHybO1A9-38" value="0" style="text;html=1;align=center;verticalAlign=middle;resizable=0;points=[];autosize=1;strokeColor=none;fillColor=none;" vertex="1" parent="sUT4LYcIheUjuHybO1A9-35">
          <mxGeometry x="51" y="90" width="30" height="30" as="geometry" />
        </mxCell>
        <mxCell id="sUT4LYcIheUjuHybO1A9-39" value="0" style="text;html=1;align=center;verticalAlign=middle;resizable=0;points=[];autosize=1;strokeColor=none;fillColor=none;" vertex="1" parent="sUT4LYcIheUjuHybO1A9-35">
          <mxGeometry x="51" y="120" width="30" height="30" as="geometry" />
        </mxCell>
        <mxCell id="sUT4LYcIheUjuHybO1A9-40" value="0" style="text;html=1;align=center;verticalAlign=middle;resizable=0;points=[];autosize=1;strokeColor=none;fillColor=none;" vertex="1" parent="sUT4LYcIheUjuHybO1A9-35">
          <mxGeometry x="51" y="150" width="30" height="30" as="geometry" />
        </mxCell>
        <mxCell id="sUT4LYcIheUjuHybO1A9-41" value="+1" style="text;html=1;align=center;verticalAlign=middle;resizable=0;points=[];autosize=1;strokeColor=none;fillColor=none;" vertex="1" parent="sUT4LYcIheUjuHybO1A9-35">
          <mxGeometry x="46" y="180" width="40" height="30" as="geometry" />
        </mxCell>
        <mxCell id="sUT4LYcIheUjuHybO1A9-42" value="0" style="text;html=1;align=center;verticalAlign=middle;resizable=0;points=[];autosize=1;strokeColor=none;fillColor=none;" vertex="1" parent="sUT4LYcIheUjuHybO1A9-1">
          <mxGeometry x="441" y="580" width="30" height="30" as="geometry" />
        </mxCell>
        <mxCell id="sUT4LYcIheUjuHybO1A9-43" value="+1" style="text;html=1;align=center;verticalAlign=middle;resizable=0;points=[];autosize=1;strokeColor=none;fillColor=none;" vertex="1" parent="sUT4LYcIheUjuHybO1A9-1">
          <mxGeometry x="436" y="610" width="40" height="30" as="geometry" />
        </mxCell>
        <mxCell id="sUT4LYcIheUjuHybO1A9-44" value="0" style="text;html=1;align=center;verticalAlign=middle;resizable=0;points=[];autosize=1;strokeColor=none;fillColor=none;" vertex="1" parent="sUT4LYcIheUjuHybO1A9-1">
          <mxGeometry x="441" y="640" width="30" height="30" as="geometry" />
        </mxCell>
        <mxCell id="sUT4LYcIheUjuHybO1A9-45" value="0" style="text;html=1;align=center;verticalAlign=middle;resizable=0;points=[];autosize=1;strokeColor=none;fillColor=none;" vertex="1" parent="sUT4LYcIheUjuHybO1A9-1">
          <mxGeometry x="441" y="670" width="30" height="30" as="geometry" />
        </mxCell>
        <mxCell id="sUT4LYcIheUjuHybO1A9-46" value="+1" style="text;html=1;align=center;verticalAlign=middle;resizable=0;points=[];autosize=1;strokeColor=none;fillColor=none;" vertex="1" parent="sUT4LYcIheUjuHybO1A9-1">
          <mxGeometry x="436" y="700" width="40" height="30" as="geometry" />
        </mxCell>
        <mxCell id="sUT4LYcIheUjuHybO1A9-47" value="0" style="text;html=1;align=center;verticalAlign=middle;resizable=0;points=[];autosize=1;strokeColor=none;fillColor=none;" vertex="1" parent="sUT4LYcIheUjuHybO1A9-1">
          <mxGeometry x="441" y="730" width="30" height="30" as="geometry" />
        </mxCell>
        <mxCell id="sUT4LYcIheUjuHybO1A9-48" value="0" style="text;html=1;align=center;verticalAlign=middle;resizable=0;points=[];autosize=1;strokeColor=none;fillColor=none;" vertex="1" parent="sUT4LYcIheUjuHybO1A9-1">
          <mxGeometry x="441" y="760" width="30" height="30" as="geometry" />
        </mxCell>
        <mxCell id="sUT4LYcIheUjuHybO1A9-49" value="+1" style="text;html=1;align=center;verticalAlign=middle;resizable=0;points=[];autosize=1;strokeColor=none;fillColor=none;" vertex="1" parent="sUT4LYcIheUjuHybO1A9-1">
          <mxGeometry x="436" y="790" width="40" height="30" as="geometry" />
        </mxCell>
      </root>
    </mxGraphModel>
  </diagram>
</mxfile>
